<svg xmlns="http://www.w3.org/2000/svg" viewBox="0 0 1600 624" width="1600" height="624">
  <path d="M 604 370 L 494 370 L 485 375 L 477 383 L 472 396 L 473 408 L 477 413 L 482 415 L 588 414 L 593 409 L 593 405 L 604 377 Z M 923 258 L 912 251 L 835 251 L 831 254 L 802 333 L 795 357 L 792 361 L 790 371 L 778 403 L 779 409 L 850 409 L 860 407 L 878 397 L 898 379 L 907 368 L 915 354 L 934 299 L 933 277 Z M 1599 200 L 1597 199 L 1595 191 L 1586 175 L 1574 162 L 1571 161 L 1571 159 L 1555 148 L 1542 144 L 1478 137 L 1375 138 L 1334 143 L 1333 138 L 1345 112 L 1351 91 L 1352 66 L 1350 57 L 1341 38 L 1325 22 L 1313 17 L 1310 14 L 1296 11 L 1258 11 L 1233 17 L 1230 20 L 1226 20 L 1218 24 L 1195 24 L 1191 26 L 1164 25 L 1116 27 L 1109 30 L 1104 30 L 1084 46 L 1080 52 L 1046 138 L 808 138 L 790 144 L 785 144 L 755 157 L 745 154 L 734 146 L 729 146 L 726 143 L 721 143 L 716 140 L 693 134 L 629 131 L 619 132 L 605 130 L 561 130 L 551 128 L 524 128 L 519 126 L 510 126 L 509 122 L 514 110 L 517 95 L 517 73 L 511 51 L 496 31 L 492 30 L 486 24 L 470 18 L 439 14 L 156 15 L 152 18 L 144 43 L 144 48 L 140 56 L 139 65 L 135 73 L 133 85 L 130 89 L 123 110 L 121 122 L 117 129 L 114 145 L 108 158 L 95 203 L 99 205 L 203 203 L 207 206 L 207 208 L 182 226 L 158 247 L 151 251 L 146 257 L 132 266 L 127 272 L 108 285 L 90 302 L 79 309 L 61 325 L 49 331 L 47 336 L 45 336 L 27 352 L 20 365 L 20 379 L 17 382 L 15 393 L 14 413 L 11 414 L 13 420 L 9 422 L 8 437 L 5 446 L 6 449 L 3 450 L 4 460 L 0 462 L 0 465 L 2 466 L 0 469 L 0 495 L 2 496 L 4 505 L 16 516 L 20 516 L 27 520 L 47 526 L 111 526 L 114 528 L 144 527 L 147 529 L 188 528 L 199 531 L 223 529 L 230 531 L 293 531 L 296 533 L 310 533 L 350 525 L 352 523 L 367 519 L 376 512 L 383 511 L 407 524 L 430 531 L 441 532 L 463 531 L 472 533 L 582 534 L 584 532 L 616 532 L 617 539 L 612 543 L 612 553 L 608 558 L 610 567 L 606 570 L 603 579 L 602 597 L 605 600 L 607 608 L 618 618 L 622 619 L 626 623 L 741 623 L 743 620 L 751 617 L 761 603 L 762 595 L 766 588 L 766 582 L 770 579 L 772 566 L 777 556 L 776 550 L 779 547 L 777 543 L 783 531 L 808 536 L 816 535 L 819 537 L 839 538 L 847 535 L 862 535 L 878 530 L 881 527 L 896 522 L 900 518 L 906 516 L 917 508 L 921 502 L 924 501 L 927 495 L 930 495 L 944 507 L 960 514 L 986 520 L 1025 520 L 1044 517 L 1049 514 L 1053 515 L 1061 511 L 1072 510 L 1082 517 L 1108 525 L 1146 524 L 1147 522 L 1159 522 L 1170 517 L 1178 516 L 1187 511 L 1196 511 L 1215 526 L 1230 530 L 1250 529 L 1254 531 L 1266 529 L 1271 526 L 1280 526 L 1310 516 L 1318 509 L 1318 503 L 1322 500 L 1322 492 L 1326 488 L 1326 484 L 1329 480 L 1333 462 L 1337 456 L 1339 443 L 1342 441 L 1344 430 L 1349 421 L 1349 417 L 1351 416 L 1353 406 L 1362 384 L 1363 376 L 1366 372 L 1367 364 L 1371 358 L 1371 352 L 1377 341 L 1390 300 L 1398 296 L 1417 295 L 1425 297 L 1428 304 L 1412 350 L 1411 358 L 1405 371 L 1402 385 L 1398 393 L 1399 396 L 1396 400 L 1395 407 L 1393 408 L 1392 417 L 1388 423 L 1384 444 L 1380 447 L 1380 452 L 1370 478 L 1371 494 L 1383 507 L 1393 511 L 1500 513 L 1514 505 L 1520 497 L 1520 493 L 1538 447 L 1540 434 L 1544 427 L 1544 423 L 1546 422 L 1549 408 L 1555 396 L 1562 369 L 1571 348 L 1572 339 L 1577 329 L 1583 306 L 1589 297 L 1596 277 L 1597 269 L 1599 268 Z M 698 193 L 705 201 L 713 218 L 715 227 L 714 256 L 703 296 L 700 300 L 687 341 L 675 370 L 655 432 L 651 439 L 639 476 L 634 481 L 422 483 L 414 480 L 406 472 L 399 455 L 399 427 L 404 402 L 411 384 L 429 352 L 437 341 L 455 323 L 474 309 L 496 302 L 607 301 L 626 293 L 636 283 L 639 277 L 639 261 L 632 254 L 473 254 L 472 249 L 476 236 L 479 233 L 487 206 L 496 186 L 543 184 L 677 184 L 686 186 Z M 996 200 L 1004 210 L 1004 213 L 1007 215 L 1014 238 L 1014 267 L 1008 298 L 999 327 L 979 372 L 964 396 L 947 418 L 929 436 L 911 450 L 887 462 L 845 476 L 823 479 L 753 480 L 746 493 L 716 581 L 711 587 L 638 588 L 637 581 L 647 555 L 687 438 L 691 431 L 694 418 L 712 371 L 724 333 L 731 317 L 732 310 L 735 306 L 755 246 L 762 231 L 768 209 L 778 185 L 782 182 L 950 181 L 975 186 Z M 1258 178 L 1259 184 L 1256 194 L 1251 204 L 1236 251 L 1232 258 L 1232 263 L 1222 286 L 1222 291 L 1208 327 L 1195 368 L 1189 379 L 1179 413 L 1158 471 L 1152 476 L 1089 476 L 1088 469 L 1108 416 L 1112 400 L 1122 376 L 1128 355 L 1133 345 L 1189 184 L 1195 177 Z M 1535 199 L 1544 214 L 1548 226 L 1549 251 L 1546 264 L 1504 382 L 1503 389 L 1488 427 L 1488 432 L 1483 442 L 1476 465 L 1472 471 L 1468 473 L 1408 473 L 1404 471 L 1416 432 L 1426 409 L 1433 384 L 1437 378 L 1447 345 L 1463 304 L 1464 297 L 1467 293 L 1471 275 L 1473 273 L 1473 258 L 1467 248 L 1455 241 L 1443 239 L 1370 239 L 1357 246 L 1352 251 L 1352 255 L 1350 256 L 1328 323 L 1325 327 L 1322 341 L 1312 364 L 1312 368 L 1277 464 L 1269 472 L 1262 475 L 1215 475 L 1210 470 L 1210 457 L 1244 363 L 1247 350 L 1257 326 L 1289 232 L 1299 207 L 1315 189 L 1328 181 L 1345 176 L 1492 175 L 1518 184 Z M 450 88 L 454 95 L 454 113 L 446 150 L 436 176 L 382 222 L 373 227 L 346 250 L 332 259 L 302 284 L 156 394 L 149 401 L 149 406 L 151 407 L 358 405 L 360 407 L 360 411 L 339 472 L 334 482 L 331 484 L 320 485 L 84 486 L 66 480 L 55 472 L 50 464 L 50 452 L 53 436 L 65 397 L 77 370 L 127 330 L 153 312 L 160 305 L 246 240 L 255 235 L 286 210 L 291 208 L 351 161 L 351 153 L 240 153 L 168 155 L 166 153 L 166 147 L 192 77 L 416 74 L 428 75 L 441 80 Z M 1179 67 L 1181 69 L 1181 73 L 1173 92 L 1164 123 L 1152 152 L 1149 165 L 1133 207 L 1133 211 L 1120 243 L 1112 271 L 1106 283 L 1104 293 L 1082 351 L 1081 359 L 1060 414 L 1041 471 L 1034 477 L 973 478 L 970 475 L 972 464 L 1017 342 L 1021 326 L 1039 280 L 1045 258 L 1055 235 L 1055 231 L 1112 71 L 1118 67 Z M 1305 68 L 1305 77 L 1303 79 L 1286 129 L 1281 134 L 1209 134 L 1211 121 L 1231 68 L 1248 65 L 1297 65 Z" fill="#345e90" fill-rule="evenodd"/>
</svg>
